<?xml version="1.0" encoding="utf-8"?>
<!-- Generator: Adobe Illustrator 28.3.0, SVG Export Plug-In . SVG Version: 6.00 Build 0)  -->
<svg version="1.1" id="Layer_1" xmlns="http://www.w3.org/2000/svg" xmlns:xlink="http://www.w3.org/1999/xlink" x="0px" y="0px"
	 viewBox="0 0 595.3 841.9" style="enable-background:new 0 0 595.3 841.9;" xml:space="preserve">
<style type="text/css">
	.st0{fill:#FFFFFF;}
</style>
<g>
	<path class="st0" d="M215.8,163.2c55.3-27.8,110.2-30.5,165.5,0c0.8-5.5,1.5-11.1,2.4-16.7c3.9-23.5,10.7-46,23.4-66.3
		c3.8-6.1,8.5-12,13.5-17.1c17.3-17.6,40.2-19.8,60.9-6.2c16.5,10.8,26.1,26.8,32.7,44.9c8.6,23.6,11.8,48.2,11.8,73.1
		c0,21.6-1.7,43.2-2.5,64.8c-0.1,1.4,0.8,3.4,1.9,4.2c34.7,27,52.7,63.3,59.1,106c4.4,29.8,2.5,59.1-8.9,87.2
		c-3.4,8.4-8.5,16.1-13.2,23.9c-1.3,2.2-1.7,3.6-0.4,6c11.2,21.1,18.9,43.5,21.9,67.3c4.3,33.4-0.8,65.3-14.1,96
		c-3.2,7.4-7,14.6-10.8,21.7c-1.3,2.5-1.4,4.5-0.4,7c11.5,28.8,17.3,58.7,16.2,89.8c-0.3,8.7-1.2,17.5-2.5,26.1
		c-1.7,12-11.2,19.8-22.9,19.4c-11.3-0.4-20.4-8.9-21.1-20.4c-0.3-4.8,0.8-9.7,1.3-14.6c3.4-32.1-2.3-62.7-15.6-91.8
		c-5-10.9-4.3-20.1,2.2-30.2c17.4-27.1,26.7-56.7,24.5-89.4c-1.8-26.8-11.5-51-25.5-73.7c-2.4-3.9-4.2-8.6-4.8-13.2
		c-1-6.8,1.6-13.3,7.1-17.2c11.3-8,16.9-19.3,20.1-32c9.7-38.2,5-74.7-16.2-108.1c-16.3-25.8-40.8-39.8-70.7-43.8
		c-10.6-1.4-21.4-1.2-32.1-1.3c-10.2,0-17.7-4-22.2-13.2c-7.6-15.6-17.7-29.3-31.8-39.7c-21.2-15.6-45.3-21.7-71.3-20
		c-25.8,1.6-49.3,9.7-69.7,26c-10.3,8.3-18.5,18.2-23.4,30.7c-3.9,10-11.2,15-22,15.2c-18.4,0.2-36.5,2.3-54,8.4
		c-38.2,13.4-60.7,40.5-68.5,79.8c-5.3,26.7-3.3,52.9,7.8,77.9c3.1,7,7.9,13.5,12.8,19.5c6.5,8,8.1,17.2,3.1,26.6
		c-16,29.5-23.2,61.1-22.9,94.5c0.2,24.7,5.6,48.2,20.2,68.8c1.5,2.1,3,4,4.6,6c6.1,7.6,6.8,15.6,3.2,24.6
		c-5.5,14-11.3,28.1-15.6,42.5c-5.9,19.6-7.6,39.7-3.3,60.2c2.7,12.7-5.2,24.2-17.5,26.5c-12.3,2.3-23.3-5.4-26.1-18.2
		c-6-27.5-3.3-54.7,4.3-81.4c3.2-11.3,7.7-22.3,11.4-33.5c0.5-1.6,0.6-4.1-0.3-5.4c-19.4-30-26.1-63.2-25.3-98.3
		c0.7-32.1,7.7-62.8,20.5-92.2c0.5-1.2,0.3-3.4-0.5-4.6C14.3,430.5,7.9,398.8,9,365.3c0.9-27.3,7.6-53.2,21.4-77
		c10.2-17.6,23.6-32.4,40.3-44c2.7-1.9,3.3-3.8,3-6.9c-3.5-33.4-4.6-66.7,0.3-100.1c3.3-22.3,9-43.9,22.2-62.8
		c7.1-10.2,16.1-18.3,27.6-23.4c17-7.6,32.9-5.3,47.5,6c11,8.4,18.5,19.7,24.6,31.9c11.4,22.7,17.2,47,19.8,72.1
		C215.6,161.8,215.7,162.4,215.8,163.2z M116.7,221.9c1-0.1,1.5-0.2,2-0.3c14.4-4,29-6.4,43.8-7.3c0.9-0.1,2.2-0.3,2.5-0.9
		c2.1-4.2,5.2-8.3,5.8-12.8c2.7-19.6,1.3-39.2-3.1-58.5c-3.5-15.3-8.2-30.3-17.5-43.2c-6.7-9.3-7.8-11.2-17.1,0
		c-6.2,7.5-9.1,16.7-11.5,26c-6.7,25.7-7,51.9-6.1,78.2C115.8,209.3,116.3,215.5,116.7,221.9z M480.5,221c0.1-0.3,0.3-0.5,0.3-0.8
		c1.7-25.6,2.2-51.2-1.6-76.6c-1.9-12.7-4.6-25.4-11.1-36.7c-2.7-4.7-6.7-8.7-10.4-12.8c-1.9-2.1-4.3-1.9-6,0.5
		c-3.9,5.6-8.3,11-11.3,17.1c-9.9,20-14.4,41.6-15,63.7c-0.3,10.9,0.9,21.9,2,32.9c0.5,5.4,1.8,5.7,6.9,6c8.1,0.5,16.1,1.1,24.1,2.2
		C465.8,217.7,473.1,219.5,480.5,221z"/>
	<path class="st0" d="M299.7,541.5c-30.1-0.2-56-4.6-79.5-18.7c-20.4-12.3-34.9-29.2-40.3-52.9c-5.5-24.3,1.4-45.8,16.7-64.7
		c21-26.1,49-40.1,81.7-44.9c31.6-4.6,61.6,0.6,89.1,17.4c22,13.5,38.6,31.7,45.6,57c7.9,28.5,0.3,67.7-38.5,89.3
		c-16.8,9.4-35.2,14-54.2,16C312.4,540.9,304.4,541.2,299.7,541.5z M296.8,511.1c6.7-0.4,13.5-0.6,20.2-1.4
		c15.8-1.7,31.1-5.3,44.9-13.8c22.3-13.8,29.5-40.7,17.2-63.9c-5.5-10.3-13.1-18.7-22.8-25.1c-32.5-21.5-66.9-23.3-102.3-8.1
		c-16.7,7.2-30.6,18.1-39.5,34.4c-8.9,16.3-7.4,32.1,3.2,47.1c6.8,9.6,16.2,16,26.7,20.7C261.1,508.6,278.7,511,296.8,511.1z"/>
	<path class="st0" d="M179,394.6c0,16.3-13.3,29.7-29.5,29.7c-16.2,0-29.5-13.5-29.5-29.8c0.1-16.1,13.2-29.3,29.3-29.5
		C165.6,364.9,179,378.3,179,394.6z"/>
	<path class="st0" d="M416.1,394.6c0.1-16.4,13.5-29.7,29.7-29.5c16.1,0.2,29.2,13.4,29.2,29.6c0.1,16.2-13.4,29.7-29.6,29.7
		C429.2,424.3,416,411,416.1,394.6z"/>
	<path class="st0" d="M116.7,221.9c-0.4-6.3-1-12.5-1.2-18.7c-0.9-26.3-0.6-52.5,6.1-78.2c2.4-9.3,5.4-18.5,11.5-26
		c9.3-11.2,10.4-9.3,17.1,0c9.3,12.9,14,27.8,17.5,43.2c4.4,19.3,5.8,38.8,3.1,58.5c-0.6,4.4-3.7,8.6-5.8,12.8
		c-0.3,0.6-1.6,0.8-2.5,0.9c-14.9,0.9-29.5,3.3-43.8,7.3C118.2,221.7,117.7,221.7,116.7,221.9z"/>
	<path class="st0" d="M480.5,221c-7.4-1.5-14.7-3.3-22.1-4.4c-8-1.1-16.1-1.7-24.1-2.2c-5.1-0.3-6.4-0.7-6.9-6
		c-1-10.9-2.3-21.9-2-32.9c0.6-22.2,5.1-43.7,15-63.7c3-6.1,7.4-11.5,11.3-17.1c1.7-2.4,4.1-2.6,6-0.5c3.7,4.1,7.7,8.1,10.4,12.8
		c6.5,11.3,9.2,24,11.1,36.7c3.8,25.5,3.3,51,1.6,76.6C480.7,220.5,480.6,220.7,480.5,221z"/>
	<path class="st0" d="M296.8,511.1c-18.1-0.1-35.7-2.5-52.4-10c-10.6-4.8-19.9-11.2-26.7-20.7c-10.6-15-12.1-30.8-3.2-47.1
		c8.9-16.3,22.8-27.2,39.5-34.4c35.4-15.2,69.8-13.3,102.3,8.1c9.7,6.4,17.3,14.8,22.8,25.1c12.3,23.2,5.1,50.1-17.2,63.9
		c-13.7,8.5-29.1,12-44.9,13.8C310.3,510.5,303.6,510.7,296.8,511.1z M296.8,434.4c-2.6-2-5-4.1-7.6-5.9c-5.3-3.9-12.5-3-16.4,1.9
		c-4.1,5.1-3.5,11.9,1.5,16.4c2.3,2,4.9,3.7,7,5.8c1.2,1.2,2.1,3,2.2,4.6c0.3,4.2,0,8.5,0.2,12.7c0.4,8.4,7.6,14.3,15.3,12.6
		c6.3-1.4,10.7-6.5,10-13.8c-0.8-9.4,1.1-16.6,10-21.8c5.6-3.3,6-11.3,2.2-16.2c-4-5.1-10.9-6.2-16.4-2.4
		C302.1,430.2,299.6,432.3,296.8,434.4z"/>
	<path class="st0" d="M296.8,434.4c2.8-2.1,5.3-4.3,8-6.1c5.4-3.7,12.4-2.6,16.4,2.4c3.8,4.9,3.4,13-2.2,16.2
		c-8.9,5.2-10.8,12.4-10,21.8c0.6,7.3-3.8,12.4-10,13.8c-7.7,1.7-14.9-4.2-15.3-12.6c-0.2-4.2,0.2-8.5-0.2-12.7
		c-0.1-1.6-1.1-3.4-2.2-4.6c-2.1-2.2-4.8-3.8-7-5.8c-5-4.5-5.6-11.4-1.5-16.4c3.9-4.9,11.1-5.7,16.4-1.9
		C291.8,430.4,294.2,432.4,296.8,434.4z"/>
</g>
</svg>
